<svg width="32" height="32" viewBox="0 0 32 32" fill="none" xmlns="http://www.w3.org/2000/svg">
<rect width="32" height="32" rx="2" fill="#F24088"/>
<path d="M4.17067 22.2V21.24L5.33867 21.08C5.552 21.048 5.696 20.968 5.77067 20.84C5.84533 20.712 5.88267 20.52 5.88267 20.264V12.088H5.17867C4.82667 12.088 4.528 12.1253 4.28267 12.2C4.048 12.264 3.84 12.3867 3.65867 12.568C3.488 12.7387 3.33333 12.984 3.19467 13.304C3.056 13.624 2.912 14.04 2.76267 14.552L1.56267 14.296L2.12267 10.968H11.8827L12.4107 14.296L11.2107 14.552C11.0613 14.04 10.9173 13.624 10.7787 13.304C10.64 12.984 10.4853 12.7333 10.3147 12.552C10.144 12.3707 9.936 12.248 9.69067 12.184C9.456 12.12 9.17333 12.088 8.84267 12.088H8.10667V20.312C8.10667 20.5573 8.13867 20.7387 8.20267 20.856C8.26667 20.9733 8.42133 21.048 8.66667 21.08L9.81867 21.24V22.2H4.17067ZM13.7744 22.2V21.24L14.5584 21.112C14.7611 21.08 14.8944 21.0107 14.9584 20.904C15.0224 20.7973 15.0544 20.5947 15.0544 20.296V12.808C15.0544 12.5413 15.0171 12.36 14.9424 12.264C14.8784 12.1573 14.7397 12.088 14.5264 12.056L13.7744 11.928V10.968H18.6864C19.3797 10.968 20.0197 11.032 20.6064 11.16C21.2037 11.288 21.7424 11.4853 22.2224 11.752C22.7131 12.0187 23.1291 12.3653 23.4704 12.792C23.8117 13.208 24.0784 13.704 24.2704 14.28C24.4624 14.8453 24.5584 15.5013 24.5584 16.248C24.5584 17.208 24.4144 18.056 24.1264 18.792C23.8384 19.528 23.4171 20.152 22.8624 20.664C22.3077 21.176 21.6251 21.56 20.8144 21.816C20.0144 22.072 19.0864 22.2 18.0304 22.2H13.7744ZM18.3184 21.016C18.9904 21.016 19.5664 20.9253 20.0464 20.744C20.5371 20.552 20.9371 20.2693 21.2464 19.896C21.5664 19.512 21.8011 19.0267 21.9504 18.44C22.0997 17.8533 22.1744 17.16 22.1744 16.36C22.1744 15.4213 22.0304 14.6427 21.7424 14.024C21.4651 13.3947 21.0544 12.9253 20.5104 12.616C19.9771 12.3067 19.3157 12.152 18.5264 12.152H17.2944V20.936C17.4224 20.9573 17.5771 20.9787 17.7584 21C17.9504 21.0107 18.1371 21.016 18.3184 21.016ZM27.4567 22.456C27.03 22.456 26.6887 22.3333 26.4327 22.088C26.1767 21.8427 26.0487 21.528 26.0487 21.144C26.0487 20.76 26.1767 20.4453 26.4327 20.2C26.6887 19.944 27.03 19.816 27.4567 19.816C27.894 19.816 28.2407 19.9387 28.4967 20.184C28.7527 20.4293 28.8807 20.744 28.8807 21.128C28.8807 21.5227 28.7473 21.8427 28.4807 22.088C28.2247 22.3333 27.8833 22.456 27.4567 22.456Z" fill="white"/>
</svg>
