<svg width="70" height="70" viewBox="0 0 70 70" fill="none" xmlns="http://www.w3.org/2000/svg">
<rect x="2.5" y="2.5" width="65" height="65" stroke="#F24088" stroke-width="5"/>
<path d="M13.048 49V47.432L15.32 47.176C15.7467 47.1333 16.0347 46.984 16.184 46.728C16.3333 46.4507 16.408 46.056 16.408 45.544V28.136H14.936C14.232 28.136 13.624 28.2213 13.112 28.392C12.6213 28.5413 12.184 28.808 11.8 29.192C11.4373 29.576 11.1067 30.1093 10.808 30.792C10.5093 31.4747 10.2 32.3387 9.88 33.384L7.928 32.936L8.984 26.344H28.312L29.304 32.968L27.352 33.384C27.0533 32.3387 26.744 31.4747 26.424 30.792C26.1253 30.1093 25.7947 29.576 25.432 29.192C25.0693 28.808 24.6427 28.5413 24.152 28.392C23.6613 28.2213 23.0747 28.136 22.392 28.136H20.888V45.64C20.888 46.152 20.952 46.5253 21.08 46.76C21.2293 46.9733 21.5387 47.112 22.008 47.176L24.216 47.432V49H13.048ZM31.9468 49V47.432L33.5148 47.208C33.9201 47.1653 34.1868 47.0373 34.3148 46.824C34.4428 46.6107 34.5068 46.1947 34.5068 45.576V29.576C34.5068 29.0427 34.4321 28.68 34.2828 28.488C34.1548 28.2747 33.8774 28.136 33.4508 28.072L31.9468 27.88V26.344H41.7708C43.1148 26.344 44.3734 26.472 45.5468 26.728C46.7414 26.9627 47.8188 27.3467 48.7788 27.88C49.7601 28.4133 50.6028 29.1067 51.3068 29.96C52.0108 30.792 52.5548 31.7947 52.9388 32.968C53.3228 34.1413 53.5148 35.496 53.5148 37.032C53.5148 39.0373 53.2268 40.7867 52.6508 42.28C52.0748 43.7733 51.2214 45.0213 50.0908 46.024C48.9814 47.0267 47.6268 47.7733 46.0268 48.264C44.4268 48.7547 42.6134 49 40.5868 49H31.9468ZM41.0028 47.048C42.3468 47.048 43.4988 46.8667 44.4588 46.504C45.4401 46.1413 46.2508 45.5653 46.8908 44.776C47.5308 43.9867 48.0001 42.9733 48.2987 41.736C48.6188 40.4773 48.7788 38.9733 48.7788 37.224C48.7788 35.1973 48.4908 33.5227 47.9148 32.2C47.3388 30.8773 46.5068 29.896 45.4188 29.256C44.3308 28.5947 43.0081 28.264 41.4508 28.264H38.9868V46.92C39.2214 46.9627 39.5201 46.9947 39.8828 47.016C40.2668 47.0373 40.6401 47.048 41.0028 47.048ZM59.373 49.512C58.541 49.512 57.869 49.2667 57.357 48.776C56.845 48.2853 56.589 47.656 56.589 46.888C56.589 46.12 56.845 45.5013 57.357 45.032C57.869 44.5413 58.541 44.296 59.373 44.296C60.2263 44.296 60.909 44.5413 61.421 45.032C61.933 45.5013 62.189 46.12 62.189 46.888C62.189 47.656 61.9223 48.2853 61.389 48.776C60.877 49.2667 60.205 49.512 59.373 49.512Z" fill="#F24088"/>
</svg>
