<svg width="338" height="68" viewBox="0 0 338 68" fill="none" xmlns="http://www.w3.org/2000/svg">
<path d="M8.592 56V54.128L11.616 53.84C12.256 53.776 12.704 53.552 12.96 53.168C13.216 52.784 13.344 52.176 13.344 51.344V23.84H11.28C10.256 23.84 9.36 23.984 8.592 24.272C7.856 24.528 7.2 24.976 6.624 25.616C6.048 26.256 5.52 27.12 5.04 28.208C4.56 29.264 4.064 30.608 3.552 32.24L1.152 31.712L2.544 21.584H32.112L33.408 31.712L31.008 32.24C30.528 30.608 30.048 29.264 29.568 28.208C29.088 27.12 28.56 26.256 27.984 25.616C27.408 24.976 26.752 24.528 26.016 24.272C25.28 23.984 24.4 23.84 23.376 23.84H21.312V51.488C21.312 52.288 21.44 52.864 21.696 53.216C21.952 53.568 22.416 53.776 23.088 53.84L26.064 54.128V56H8.592ZM41.3666 56.672C39.1586 56.672 37.4146 56.096 36.1346 54.944C34.8866 53.792 34.2626 52.192 34.2626 50.144C34.2626 48.352 34.7106 46.928 35.6066 45.872C36.5346 44.816 38.0066 44.032 40.0226 43.52C42.0706 43.008 44.7586 42.672 48.0866 42.512V37.664C48.0866 36.448 47.9426 35.456 47.6546 34.688C47.3986 33.92 46.9666 33.36 46.3586 33.008C45.7506 32.656 44.9346 32.48 43.9106 32.48C43.0786 32.48 42.2146 32.624 41.3186 32.912C40.4546 33.168 39.7826 33.52 39.3026 33.968C39.8786 34.672 40.3106 35.28 40.5986 35.792C40.9186 36.272 41.1266 36.672 41.2226 36.992C41.3506 37.312 41.4146 37.6 41.4146 37.856C41.4146 38.56 41.1106 39.152 40.5026 39.632C39.9266 40.112 39.0946 40.352 38.0066 40.352C36.8546 40.352 35.9906 40.08 35.4146 39.536C34.8706 38.992 34.5986 38.272 34.5986 37.376C34.5986 36.224 35.0306 35.136 35.8946 34.112C36.7906 33.056 38.0386 32.208 39.6386 31.568C41.2386 30.928 43.1106 30.608 45.2546 30.608C47.5266 30.608 49.4306 30.928 50.9666 31.568C52.5346 32.176 53.7186 33.168 54.5186 34.544C55.3186 35.92 55.7186 37.712 55.7186 39.92V51.008C55.7186 51.808 55.8626 52.384 56.1506 52.736C56.4706 53.088 56.9186 53.264 57.4946 53.264C57.8466 53.264 58.1826 53.232 58.5026 53.168C58.8226 53.072 59.1586 52.96 59.5106 52.832L59.9426 54.272C59.1746 55.072 58.2626 55.664 57.2066 56.048C56.1826 56.464 55.1586 56.672 54.1346 56.672C52.5026 56.672 51.2386 56.288 50.3426 55.52C49.4786 54.752 48.9186 53.696 48.6626 52.352C48.2146 53.28 47.6546 54.064 46.9826 54.704C46.3426 55.344 45.5586 55.824 44.6306 56.144C43.7346 56.496 42.6466 56.672 41.3666 56.672ZM44.6306 53.312C45.3666 53.312 45.9746 53.152 46.4546 52.832C46.9666 52.512 47.3666 52.048 47.6546 51.44C47.9426 50.832 48.0866 50.144 48.0866 49.376V44.336C46.5826 44.368 45.3666 44.544 44.4386 44.864C43.5106 45.184 42.8386 45.712 42.4226 46.448C42.0066 47.152 41.7986 48.112 41.7986 49.328C41.7986 50.64 42.0386 51.632 42.5186 52.304C42.9986 52.976 43.7026 53.312 44.6306 53.312ZM61.2146 56V54.176L63.1346 53.888C63.6146 53.824 63.9346 53.648 64.0946 53.36C64.2546 53.072 64.3346 52.512 64.3346 51.68V36.464C64.3346 35.44 64.2386 34.736 64.0466 34.352C63.8546 33.936 63.3906 33.68 62.6546 33.584L60.7826 33.392L60.9746 31.472L70.8626 30.944L71.3426 31.28L71.4866 35.936H71.5826C72.3186 34.208 73.4066 32.896 74.8466 32C76.2866 31.072 77.9506 30.608 79.8386 30.608C81.6306 30.608 83.1186 30.944 84.3026 31.616C85.4866 32.288 86.3666 33.264 86.9426 34.544C87.5506 35.792 87.8546 37.328 87.8546 39.152V51.92C87.8546 52.656 87.9506 53.168 88.1426 53.456C88.3346 53.712 88.7346 53.872 89.3426 53.936L91.0706 54.176V56H77.4866V54.224L78.9746 53.984C79.5186 53.92 79.8706 53.744 80.0306 53.456C80.1906 53.168 80.2706 52.672 80.2706 51.968V39.68C80.2706 38.272 80.1586 37.168 79.9346 36.368C79.7106 35.568 79.3426 35.008 78.8306 34.688C78.3506 34.368 77.6786 34.208 76.8146 34.208C75.8866 34.208 75.0546 34.448 74.3186 34.928C73.5826 35.376 72.9906 36.048 72.5426 36.944C72.1266 37.84 71.9186 38.896 71.9186 40.112V51.824C71.9186 52.56 71.9826 53.072 72.1106 53.36C72.2706 53.648 72.5906 53.84 73.0706 53.936L74.7986 54.224V56H61.2146ZM93.6053 56V54.176L95.5253 53.888C96.0053 53.824 96.3253 53.648 96.4853 53.36C96.6453 53.072 96.7253 52.512 96.7253 51.68V36.464C96.7253 35.44 96.6293 34.736 96.4373 34.352C96.2453 33.936 95.7813 33.68 95.0453 33.584L93.1733 33.392L93.3652 31.472L103.253 30.944L103.733 31.28L103.877 35.936H103.973C104.453 34.816 105.077 33.856 105.845 33.056C106.645 32.256 107.557 31.648 108.581 31.232C109.637 30.816 110.741 30.608 111.893 30.608C113.877 30.608 115.493 31.056 116.741 31.952C117.989 32.848 118.853 34.16 119.333 35.888C120.037 34.192 121.077 32.896 122.453 32C123.861 31.072 125.461 30.608 127.253 30.608C128.981 30.608 130.421 30.944 131.573 31.616C132.725 32.288 133.589 33.264 134.165 34.544C134.773 35.792 135.077 37.328 135.077 39.152V51.92C135.077 52.656 135.173 53.168 135.365 53.456C135.557 53.712 135.941 53.872 136.517 53.936L138.293 54.176V56H125.045V54.224L126.197 54.032C126.741 53.936 127.077 53.76 127.205 53.504C127.365 53.216 127.445 52.704 127.445 51.968V39.584C127.445 38.176 127.333 37.088 127.109 36.32C126.917 35.552 126.581 35.008 126.101 34.688C125.653 34.368 125.045 34.208 124.277 34.208C123.445 34.208 122.677 34.432 121.973 34.88C121.301 35.328 120.757 35.984 120.341 36.848C119.925 37.712 119.717 38.752 119.717 39.968V51.824C119.717 52.528 119.765 53.04 119.861 53.36C119.989 53.648 120.309 53.84 120.821 53.936L122.213 54.224V56H109.637V54.224L110.837 54.032C111.349 53.936 111.685 53.76 111.845 53.504C112.005 53.216 112.085 52.704 112.085 51.968V39.584C112.085 38.144 111.973 37.04 111.749 36.272C111.557 35.504 111.221 34.976 110.741 34.688C110.293 34.368 109.685 34.208 108.917 34.208C108.053 34.208 107.269 34.448 106.565 34.928C105.893 35.376 105.349 36.032 104.933 36.896C104.517 37.76 104.309 38.784 104.309 39.968V51.824C104.309 52.56 104.373 53.072 104.501 53.36C104.661 53.648 104.981 53.84 105.461 53.936L106.853 54.224V56H93.6053ZM148.242 56.672C146.034 56.672 144.29 56.096 143.01 54.944C141.762 53.792 141.138 52.192 141.138 50.144C141.138 48.352 141.586 46.928 142.482 45.872C143.41 44.816 144.882 44.032 146.898 43.52C148.946 43.008 151.634 42.672 154.962 42.512V37.664C154.962 36.448 154.818 35.456 154.53 34.688C154.274 33.92 153.842 33.36 153.234 33.008C152.626 32.656 151.81 32.48 150.786 32.48C149.954 32.48 149.09 32.624 148.194 32.912C147.33 33.168 146.658 33.52 146.178 33.968C146.754 34.672 147.186 35.28 147.474 35.792C147.794 36.272 148.002 36.672 148.098 36.992C148.226 37.312 148.29 37.6 148.29 37.856C148.29 38.56 147.986 39.152 147.378 39.632C146.802 40.112 145.97 40.352 144.882 40.352C143.73 40.352 142.866 40.08 142.29 39.536C141.746 38.992 141.474 38.272 141.474 37.376C141.474 36.224 141.906 35.136 142.77 34.112C143.666 33.056 144.914 32.208 146.514 31.568C148.114 30.928 149.986 30.608 152.13 30.608C154.402 30.608 156.306 30.928 157.842 31.568C159.41 32.176 160.594 33.168 161.394 34.544C162.194 35.92 162.594 37.712 162.594 39.92V51.008C162.594 51.808 162.738 52.384 163.026 52.736C163.346 53.088 163.794 53.264 164.37 53.264C164.722 53.264 165.058 53.232 165.378 53.168C165.698 53.072 166.034 52.96 166.386 52.832L166.818 54.272C166.05 55.072 165.138 55.664 164.082 56.048C163.058 56.464 162.034 56.672 161.01 56.672C159.378 56.672 158.114 56.288 157.218 55.52C156.354 54.752 155.794 53.696 155.538 52.352C155.09 53.28 154.53 54.064 153.858 54.704C153.218 55.344 152.434 55.824 151.506 56.144C150.61 56.496 149.522 56.672 148.242 56.672ZM151.506 53.312C152.242 53.312 152.85 53.152 153.33 52.832C153.842 52.512 154.242 52.048 154.53 51.44C154.818 50.832 154.962 50.144 154.962 49.376V44.336C153.458 44.368 152.242 44.544 151.314 44.864C150.386 45.184 149.714 45.712 149.298 46.448C148.882 47.152 148.674 48.112 148.674 49.328C148.674 50.64 148.914 51.632 149.394 52.304C149.874 52.976 150.578 53.312 151.506 53.312ZM170.532 67.04C168.74 67.04 167.316 66.624 166.26 65.792C165.204 64.96 164.676 63.856 164.676 62.48C164.676 61.456 164.98 60.592 165.588 59.888C166.196 59.184 167.044 58.832 168.132 58.832C169.124 58.832 169.876 59.056 170.388 59.504C170.932 59.984 171.204 60.576 171.204 61.28C171.236 61.632 171.188 62.096 171.06 62.672C170.932 63.248 170.756 63.984 170.532 64.88C171.332 64.944 172.068 64.832 172.74 64.544C173.444 64.256 174.116 63.696 174.756 62.864C175.428 62.032 176.084 60.848 176.724 59.312L177.492 57.584L168.228 36.08C167.844 35.184 167.524 34.576 167.268 34.256C167.012 33.936 166.596 33.696 166.02 33.536L164.628 33.2L164.868 31.28H179.076V33.152L177.156 33.392C176.516 33.456 176.1 33.664 175.908 34.016C175.716 34.368 175.796 35.024 176.148 35.984L181.284 48.656H181.476L186.276 36.176C186.628 35.28 186.692 34.64 186.468 34.256C186.276 33.84 185.828 33.568 185.124 33.44L183.396 33.104L183.636 31.28H192.756V33.152L191.316 33.44C190.708 33.568 190.244 33.792 189.924 34.112C189.636 34.432 189.284 35.104 188.868 36.128L180.66 56.768C179.924 58.688 179.204 60.304 178.5 61.616C177.828 62.928 177.108 63.984 176.34 64.784C175.604 65.584 174.756 66.16 173.796 66.512C172.868 66.864 171.78 67.04 170.532 67.04Z" fill="#2F2F41"/>
<path d="M200.304 56V54.128L202.464 53.888C203.072 53.824 203.472 53.632 203.664 53.312C203.856 52.96 203.952 52.304 203.952 51.344V25.904C203.952 25.072 203.84 24.512 203.616 24.224C203.424 23.904 202.992 23.712 202.32 23.648L200.304 23.456V21.584H215.664C217.552 21.584 219.376 21.76 221.136 22.112C222.928 22.464 224.576 23.024 226.08 23.792C227.584 24.56 228.896 25.584 230.016 26.864C231.168 28.144 232.048 29.696 232.656 31.52C233.296 33.344 233.616 35.504 233.616 38C233.616 41.104 233.168 43.792 232.272 46.064C231.408 48.336 230.128 50.208 228.432 51.68C226.736 53.152 224.656 54.24 222.192 54.944C219.76 55.648 217.008 56 213.936 56H200.304ZM214.656 53.6C216.448 53.6 218 53.328 219.312 52.784C220.624 52.24 221.712 51.376 222.576 50.192C223.44 48.976 224.08 47.392 224.496 45.44C224.944 43.488 225.168 41.072 225.168 38.192C225.168 34.896 224.768 32.208 223.968 30.128C223.168 28.048 222.016 26.512 220.512 25.52C219.04 24.496 217.264 23.984 215.184 23.984H211.968V53.408C212.32 53.472 212.72 53.52 213.168 53.552C213.648 53.584 214.144 53.6 214.656 53.6ZM247.784 56.672C245.224 56.672 243.256 55.952 241.88 54.512C240.536 53.072 239.864 50.944 239.864 48.128V36.272C239.864 35.28 239.768 34.608 239.576 34.256C239.416 33.872 238.984 33.632 238.28 33.536L236.648 33.344L236.84 31.472L246.92 30.944L247.448 31.28V47.6C247.448 48.976 247.56 50.064 247.784 50.864C248.008 51.664 248.36 52.24 248.84 52.592C249.352 52.912 250.024 53.072 250.856 53.072C251.784 53.072 252.6 52.832 253.304 52.352C254.008 51.872 254.536 51.2 254.888 50.336C255.272 49.44 255.464 48.416 255.464 47.264V36.32C255.464 35.296 255.368 34.608 255.176 34.256C255.016 33.872 254.616 33.632 253.976 33.536L252.44 33.392L252.68 31.472L262.568 30.944L263.096 31.28V51.296C263.096 52.192 263.192 52.816 263.384 53.168C263.608 53.52 264.04 53.744 264.68 53.84L266.552 54.08L266.504 55.952L256.664 56.384L255.848 51.968H255.704C255.16 52.992 254.52 53.856 253.784 54.56C253.08 55.264 252.232 55.792 251.24 56.144C250.28 56.496 249.128 56.672 247.784 56.672ZM278.477 56.672C276.973 56.672 275.677 56.432 274.589 55.952C273.533 55.44 272.717 54.64 272.141 53.552C271.597 52.464 271.325 51.072 271.325 49.376V33.584H267.965V31.712C269.437 31.52 270.589 31.136 271.421 30.56C272.253 29.984 272.877 29.136 273.293 28.016C273.741 26.864 274.077 25.408 274.301 23.648L278.237 23.12L278.909 23.504V31.28H285.533V33.584H278.909V48.224C278.909 49.536 279.117 50.544 279.533 51.248C279.981 51.92 280.733 52.256 281.789 52.256C282.525 52.256 283.245 52.112 283.949 51.824C284.653 51.536 285.309 51.136 285.917 50.624L286.877 52.112C285.853 53.52 284.669 54.64 283.325 55.472C281.981 56.272 280.365 56.672 278.477 56.672ZM298.023 56.672C296.519 56.672 295.223 56.432 294.135 55.952C293.079 55.44 292.263 54.64 291.687 53.552C291.143 52.464 290.871 51.072 290.871 49.376V33.584H287.511V31.712C288.983 31.52 290.135 31.136 290.967 30.56C291.799 29.984 292.423 29.136 292.839 28.016C293.287 26.864 293.623 25.408 293.847 23.648L297.783 23.12L298.455 23.504V31.28H305.079V33.584H298.455V48.224C298.455 49.536 298.663 50.544 299.079 51.248C299.527 51.92 300.279 52.256 301.335 52.256C302.071 52.256 302.791 52.112 303.495 51.824C304.199 51.536 304.855 51.136 305.463 50.624L306.423 52.112C305.399 53.52 304.215 54.64 302.871 55.472C301.527 56.272 299.911 56.672 298.023 56.672ZM315.304 56.672C313.096 56.672 311.352 56.096 310.072 54.944C308.824 53.792 308.2 52.192 308.2 50.144C308.2 48.352 308.648 46.928 309.544 45.872C310.472 44.816 311.944 44.032 313.96 43.52C316.008 43.008 318.696 42.672 322.024 42.512V37.664C322.024 36.448 321.88 35.456 321.592 34.688C321.336 33.92 320.904 33.36 320.296 33.008C319.688 32.656 318.872 32.48 317.848 32.48C317.016 32.48 316.152 32.624 315.256 32.912C314.392 33.168 313.72 33.52 313.24 33.968C313.816 34.672 314.248 35.28 314.536 35.792C314.856 36.272 315.064 36.672 315.16 36.992C315.288 37.312 315.352 37.6 315.352 37.856C315.352 38.56 315.048 39.152 314.44 39.632C313.864 40.112 313.032 40.352 311.944 40.352C310.792 40.352 309.928 40.08 309.352 39.536C308.808 38.992 308.536 38.272 308.536 37.376C308.536 36.224 308.968 35.136 309.832 34.112C310.728 33.056 311.976 32.208 313.576 31.568C315.176 30.928 317.048 30.608 319.192 30.608C321.464 30.608 323.368 30.928 324.904 31.568C326.472 32.176 327.656 33.168 328.456 34.544C329.256 35.92 329.656 37.712 329.656 39.92V51.008C329.656 51.808 329.8 52.384 330.088 52.736C330.408 53.088 330.856 53.264 331.432 53.264C331.784 53.264 332.12 53.232 332.44 53.168C332.76 53.072 333.096 52.96 333.448 52.832L333.88 54.272C333.112 55.072 332.2 55.664 331.144 56.048C330.12 56.464 329.096 56.672 328.072 56.672C326.44 56.672 325.176 56.288 324.28 55.52C323.416 54.752 322.856 53.696 322.6 52.352C322.152 53.28 321.592 54.064 320.92 54.704C320.28 55.344 319.496 55.824 318.568 56.144C317.672 56.496 316.584 56.672 315.304 56.672ZM318.568 53.312C319.304 53.312 319.912 53.152 320.392 52.832C320.904 52.512 321.304 52.048 321.592 51.44C321.88 50.832 322.024 50.144 322.024 49.376V44.336C320.52 44.368 319.304 44.544 318.376 44.864C317.448 45.184 316.776 45.712 316.36 46.448C315.944 47.152 315.736 48.112 315.736 49.328C315.736 50.64 315.976 51.632 316.456 52.304C316.936 52.976 317.64 53.312 318.568 53.312Z" fill="#F24088"/>
</svg>
